# xmcd CD database file
#
# Track frame offsets:
#	150
#	16946
#	33936
#	53577
#	75669
#	93745
#	106886
#	127869
#	143353
#	160840
#	178503
#	189139
#	204808
#	222967
#	239859
#	252656
#	268130
#	284903
#	305698
#	322262
#
# Disc length: 4530 seconds
#
# Revision: 2
# Processed by: cddbd v1.5.2PL0 Copyright (c) Steve Scherf et al.
# Submitted via: CDex 1.96
#
DISCID=1f11b014
DTITLE=Various Artist - Ministry of Sound: Throwback R&B Disc 3
DYEAR=2015
DGENRE=R&B
TTITLE0=Ashanti  - Foolish
TTITLE1=LL Cool J Feat Boyz II Men - Hey Lover
TTITLE2=En Vogue  - Don't Let Go (Love)
TTITLE3=Tamia Feat Fabolous - Into You
TTITLE4=Dru Hill - How Deep Is Your Love
TTITLE5=Craig David - Walking Away
TTITLE6=Shola Ama  - You Might Need Somebody
TTITLE7=K-Ci and JoJo  - All My Life
TTITLE8=Jodeci  - Freek'n You
TTITLE9=Silk  - Freak Me
TTITLE10=Keith Sweat Feat Athena Cage  - Nobody
TTITLE11=Drizabone Soul Family - Real Love
TTITLE12=Jade - Don't Walk Away
TTITLE13=Adina Howard  - Freak Like Me
TTITLE14=Eternal - Stay
TTITLE15=Mase Feat Total   - What You Want
TTITLE16=Ideal  - Whatever
TTITLE17=Sunshine Anderson - Heard It All Before
TTITLE18=Jaheim  - Just In Case
TTITLE19=D'Angelo - Brown Sugar
EXTD=YEAR: 2015
EXTT0=
EXTT1=
EXTT2=
EXTT3=
EXTT4=
EXTT5=
EXTT6=
EXTT7=
EXTT8=
EXTT9=
EXTT10=
EXTT11=
EXTT12=
EXTT13=
EXTT14=
EXTT15=
EXTT16=
EXTT17=
EXTT18=
EXTT19=
PLAYORDER=
